<svg version="1.1" id="Layer_1" xmlns="http://www.w3.org/2000/svg" xmlns:xlink="http://www.w3.org/1999/xlink" x="0px" y="0px" viewBox="0 0 30 57.6" style="enable-background:new 0 0 30 57.6;" xml:space="preserve">
 <style type="text/css">
  .st0{fill:#A435F0;}
 </style>
 <g>
  <path class="st0" d="M30,17.2L15,8.6L0,17.2V8.6L15,0l15,8.6L30,17.2L30,17.2z">
  </path>
  <path d="M0,24.4h7.9v18.9c0,4.9,3.7,7.3,7.1,7.3c3.5,0,7.1-2.4,7.1-7.3V24.4H30v19.4c0,4.5-1.4,8-4.3,10.4
		c-2.9,2.4-6.4,3.5-10.8,3.5c-4.4,0-7.9-1.2-10.7-3.5C1.4,51.7,0,48.4,0,43.9V24.4z">
  </path>
 </g>
</svg>